<svg width="200" height="60" viewBox="0 0 200 60" fill="none" xmlns="http://www.w3.org/2000/svg">
<g clip-path="url(#clip0_842_7063)">
<path d="M61.0472 52.1482V38.8003H64.3914C65.7684 38.8003 66.8176 39.1274 67.6044 39.7818C68.3913 40.4361 68.7847 41.3521 68.7847 42.5298C68.7847 43.315 68.588 43.9693 68.1946 44.5582C67.8011 45.1471 67.211 45.5397 66.4897 45.8014C66.9487 46.0631 67.3421 46.4557 67.7356 46.9791C68.129 47.4372 68.7191 48.2878 69.4404 49.5309C69.8994 50.3161 70.2929 50.8396 70.5551 51.2321L71.2764 52.2136H68.9814L68.3913 51.363C68.3913 51.363 68.3257 51.2976 68.2601 51.2321L67.8667 50.7087L67.2766 49.7272L66.6208 48.6803C66.2274 48.1569 65.834 47.6989 65.5061 47.3717C65.1783 47.0446 64.8504 46.7828 64.5881 46.652C64.3258 46.5211 63.8668 46.4557 63.2767 46.4557H62.7521V52.279H61.0472V52.1482ZM63.6045 40.4361H63.0144V44.6891H63.7357C64.7193 44.6891 65.375 44.6236 65.7684 44.4273C66.1618 44.231 66.4241 44.0348 66.6208 43.6422C66.8176 43.315 66.9487 42.9224 66.9487 42.4644C66.9487 42.0718 66.8176 41.6792 66.6208 41.2867C66.4241 40.9595 66.0963 40.6978 65.7028 40.5669C65.1783 40.5015 64.5225 40.4361 63.6045 40.4361Z" fill="#034F9A"/>
<path d="M78.5549 38.604C80.6532 38.604 82.3581 39.2583 83.7351 40.5669C85.1121 41.8755 85.8334 43.5113 85.8334 45.4742C85.8334 47.4372 85.1121 49.0729 83.7351 50.3815C82.3581 51.6902 80.5876 52.3445 78.4893 52.3445C76.4566 52.3445 74.7517 51.6902 73.4403 50.3815C72.0633 49.0729 71.4076 47.4372 71.4076 45.5397C71.4076 43.5113 72.0633 41.8755 73.4403 40.5669C74.7517 39.2583 76.4566 38.604 78.5549 38.604ZM78.6205 40.4361C77.1123 40.4361 75.8009 40.8941 74.8173 41.8755C73.8337 42.857 73.3092 44.0348 73.3092 45.5397C73.3092 46.9791 73.8337 48.1569 74.8173 49.1384C75.8009 50.1198 77.0468 50.5778 78.5549 50.5778C80.0631 50.5778 81.3089 50.1198 82.2925 49.1384C83.2761 48.1569 83.8006 46.9137 83.8006 45.4742C83.8006 44.0348 83.2761 42.857 82.2925 41.8755C81.3089 40.8941 80.0631 40.4361 78.6205 40.4361Z" fill="#034F9A"/>
<path d="M99.0133 38.8003H100.784V52.2136H98.8822V41.7447L94.7512 46.9137H94.4233L90.2267 41.7447V52.1482H88.3251V38.8003H90.1611L94.62 44.2965L99.0133 38.8003Z" fill="#034F9A"/>
<path d="M108.193 38.7349H109.57L115.603 52.2136H113.636L111.865 48.2223H106.161L104.456 52.2136H102.489L108.193 38.7349ZM111.013 46.5211L108.849 41.6792L106.816 46.5211H111.013Z" fill="#034F9A"/>
<path d="M125.439 50.3161H130.553V52.1482H122.095V52.0173L122.881 51.0358C124.127 49.4655 125.176 48.1569 125.898 47.0446C126.619 45.9322 127.144 45.1471 127.34 44.5582C127.537 44.0348 127.668 43.4459 127.668 42.9224C127.668 42.1373 127.471 41.5484 127.012 41.0904C126.553 40.6324 126.029 40.4361 125.308 40.4361C124.783 40.4361 124.258 40.5669 123.734 40.8941C123.209 41.2212 122.75 41.6792 122.357 42.2027V39.9126C123.406 39.062 124.455 38.6694 125.57 38.6694C126.75 38.6694 127.734 39.062 128.455 39.8472C129.242 40.6324 129.57 41.6138 129.57 42.7916C129.57 43.315 129.504 43.9039 129.307 44.4928C129.111 45.0816 128.783 45.8014 128.324 46.5866C127.865 47.3717 127.012 48.484 125.898 49.8581L125.439 50.3161Z" fill="#034F9A"/>
<path d="M63.2111 0.392585V0.91603C62.6866 0.588877 62.2276 0.458015 61.8341 0.458015C61.4407 0.458015 61.1128 0.588877 60.9161 0.785169C60.6538 0.981461 60.5227 1.30861 60.5227 1.63577C60.5227 1.89749 60.5883 2.09378 60.7194 2.29008C60.8506 2.48637 61.1784 2.68266 61.6374 2.87895C62.0964 3.07525 62.4899 3.20611 62.6866 3.33697C62.8833 3.46783 63.08 3.59869 63.2111 3.86041C63.3423 4.05671 63.4079 4.38386 63.4079 4.71101C63.4079 5.16903 63.2111 5.62704 62.8833 5.9542C62.5554 6.28135 62.0964 6.47764 61.5719 6.47764C61.0473 6.47764 60.5227 6.28135 59.9981 5.9542V5.29989C60.5883 5.75791 61.1128 5.9542 61.5719 5.9542C61.9653 5.9542 62.2276 5.82334 62.4899 5.56161C62.8177 5.36532 62.9489 5.03817 62.9489 4.71101C62.9489 4.44929 62.8833 4.18757 62.6866 3.99128C62.5554 3.79498 62.2276 3.59869 61.703 3.4024C61.244 3.20611 60.8506 3.07525 60.6538 2.94438C60.4571 2.81352 60.2604 2.68266 60.1293 2.48637C59.9981 2.29008 59.9326 2.02835 59.9326 1.7012C59.9326 1.24318 60.1293 0.8506 60.4571 0.523446C60.8506 0.130861 61.244 0 61.7686 0C62.2276 0 62.7521 0.130862 63.2111 0.392585Z" fill="#034F9A"/>
<path d="M65.375 0.0654297V6.28135H64.916V0.0654297H65.375Z" fill="#034F9A"/>
<path d="M70.0306 0.392585V0.91603C69.5061 0.588877 69.047 0.458015 68.6536 0.458015C68.2602 0.458015 67.9323 0.588877 67.7356 0.785169C67.4733 0.981461 67.3422 1.30861 67.3422 1.63577C67.3422 1.89749 67.4078 2.09378 67.5389 2.29008C67.67 2.48637 67.9979 2.68266 68.4569 2.87895C68.9159 3.07525 69.3093 3.20611 69.506 3.33697C69.7028 3.46783 69.8995 3.59869 70.0306 3.86041C70.1618 4.05671 70.2273 4.38386 70.2273 4.71101C70.2273 5.16903 70.0306 5.62704 69.7028 5.9542C69.3749 6.28135 68.9159 6.47764 68.3913 6.47764C67.8668 6.47764 67.3422 6.28135 66.8176 5.9542V5.29989C67.4078 5.75791 67.9323 5.9542 68.3913 5.9542C68.7848 5.9542 69.047 5.82334 69.3093 5.56161C69.5716 5.29989 69.7028 5.03817 69.7028 4.64558C69.7028 4.38386 69.6372 4.12214 69.4405 3.92584C69.3093 3.72955 68.9815 3.53326 68.4569 3.33697C67.9979 3.14068 67.6045 3.00981 67.4078 2.87895C67.211 2.74809 67.0143 2.61723 66.8832 2.42094C66.752 2.22465 66.6865 1.96292 66.6865 1.63577C66.6865 1.17775 66.8832 0.785169 67.211 0.458015C67.5389 0.130861 67.9979 0 68.4569 0C69.1126 0 69.5716 0.130862 70.0306 0.392585Z" fill="#034F9A"/>
<path d="M76.1944 0.0654297V0.458014H73.8338V6.28135H73.3748V0.458014H71.0142V0.0654297H76.1944Z" fill="#034F9A"/>
<path d="M80.7188 0.0654297V0.458014H77.7681V2.94438H80.6532V3.33697H77.7681V5.88876H80.7844V6.28135H77.3091V0.0654297H80.7188Z" fill="#034F9A"/>
<path d="M84.981 3.00981L87.3415 0.13086H87.8005V6.34678H87.3415V0.785168L84.981 3.72955L82.6204 0.785168V6.34678H82.1614V0.0654297H82.6204L84.981 3.00981Z" fill="#034F9A"/>
<path d="M92.0627 0.0654297L94.9479 6.34678H94.4233L93.4398 4.18757H90.3579L89.3743 6.34678H88.8497L91.7349 0.0654297H92.0627V0.0654297ZM93.3086 3.79498L91.9316 0.850598L90.5546 3.79498H93.3086Z" fill="#034F9A"/>
<path d="M101.833 0.392585V0.91603C101.308 0.588877 100.849 0.458015 100.456 0.458015C100.062 0.458015 99.7346 0.588877 99.5379 0.785169C99.2756 0.981461 99.1445 1.30861 99.1445 1.63577C99.1445 1.89749 99.2101 2.09378 99.3412 2.29008C99.4723 2.48637 99.8002 2.68266 100.259 2.87895C100.718 3.07525 101.112 3.20611 101.308 3.33697C101.505 3.46783 101.702 3.59869 101.833 3.86041C101.964 4.05671 102.03 4.38386 102.03 4.71101C102.03 5.16903 101.833 5.62704 101.505 5.9542C101.177 6.28135 100.718 6.47764 100.194 6.47764C99.6691 6.47764 99.1445 6.28135 98.6199 5.9542V5.29989C99.2101 5.75791 99.7346 5.9542 100.194 5.9542C100.587 5.9542 100.849 5.82334 101.112 5.56161C101.374 5.29989 101.505 5.03817 101.505 4.64558C101.505 4.38386 101.439 4.12214 101.243 3.92584C101.112 3.72955 100.784 3.53326 100.259 3.33697C99.8002 3.14068 99.4068 3.00981 99.2101 2.87895C99.0133 2.74809 98.8166 2.61723 98.6855 2.42094C98.5543 2.22465 98.4888 1.96292 98.4888 1.63577C98.4888 1.17775 98.6855 0.785169 99.0133 0.458015C99.3412 0.130861 99.8002 0 100.259 0C100.915 0 101.374 0.130862 101.833 0.392585Z" fill="#034F9A"/>
<path d="M106.03 0.0654297L108.915 6.34678H108.39L107.407 4.18757H104.325L103.341 6.34678H102.817L105.702 0.0654297H106.03V0.0654297ZM107.21 3.79498L105.833 0.850598L104.456 3.79498H107.21Z" fill="#034F9A"/>
<path d="M115.603 0.0654297V6.28135H115.21L110.423 0.850598V6.28135H109.964V0.0654297H110.357L115.078 5.49618V0.0654297H115.603Z" fill="#034F9A"/>
<path d="M117.832 0.0654297V6.28135H117.373V0.0654297H117.832Z" fill="#034F9A"/>
<path d="M124.127 0.0654297V0.458014H121.767V6.28135H121.308V0.458014H118.947V0.0654297H124.127Z" fill="#034F9A"/>
<path d="M127.668 0.0654297L130.553 6.34678H130.029L129.045 4.18757H125.963L124.98 6.34678H124.455L127.34 0.0654297H127.668V0.0654297ZM128.848 3.79498L127.471 0.850598L126.094 3.79498H128.848Z" fill="#034F9A"/>
<path d="M131.602 0.0654297H133.176C133.832 0.0654297 134.356 0.196291 134.75 0.523445C135.078 0.785168 135.274 1.17775 135.274 1.7012C135.274 2.42094 134.881 2.94438 134.094 3.20611C134.291 3.33697 134.553 3.59869 134.947 4.18757L136.389 6.34678H135.799L134.684 4.64558C134.291 4.0567 134.029 3.72955 133.832 3.59869C133.635 3.46783 133.307 3.4024 132.914 3.4024H132.061V6.41221H131.602V0.0654297ZM132.127 0.458014V2.87895H133.176C133.701 2.87895 134.094 2.74809 134.356 2.5518C134.619 2.35551 134.75 2.02835 134.75 1.63577C134.75 1.24318 134.619 0.98146 134.356 0.719737C134.094 0.523445 133.635 0.392583 133.111 0.392583H132.127V0.458014Z" fill="#034F9A"/>
<path d="M137.701 0.0654297V6.28135H137.242V0.0654297H137.701Z" fill="#034F9A"/>
<path d="M142.487 0C143.405 0 144.192 0.327154 144.848 0.91603C145.504 1.57034 145.832 2.29008 145.832 3.20611C145.832 4.12214 145.504 4.84188 144.848 5.49618C144.192 6.15049 143.405 6.41221 142.487 6.41221C141.569 6.41221 140.782 6.08506 140.127 5.49618C139.471 4.84188 139.143 4.12214 139.143 3.20611C139.143 2.29008 139.471 1.57034 140.127 0.91603C140.782 0.327154 141.569 0 142.487 0ZM142.487 5.9542C143.274 5.9542 143.93 5.69248 144.455 5.16903C144.979 4.64558 145.241 3.99128 145.241 3.20611C145.241 2.42094 144.979 1.76663 144.455 1.24318C143.93 0.719738 143.274 0.458015 142.487 0.458015C141.7 0.458015 141.045 0.719738 140.52 1.24318C139.996 1.76663 139.733 2.42094 139.733 3.20611C139.733 3.99128 139.996 4.64558 140.52 5.16903C141.045 5.69248 141.7 5.9542 142.487 5.9542Z" fill="#034F9A"/>
<path d="M150.159 0.0654297H151.733C152.389 0.0654297 152.913 0.196291 153.307 0.523445C153.635 0.785168 153.831 1.17775 153.831 1.7012C153.831 2.42094 153.438 2.94438 152.651 3.20611C152.848 3.33697 153.11 3.59869 153.503 4.18757L154.946 6.34678H154.356L153.241 4.64558C152.848 4.0567 152.585 3.72955 152.389 3.59869C152.192 3.46783 151.864 3.4024 151.471 3.4024H150.618V6.41221H150.159V0.0654297ZM150.618 0.458014V2.87895H151.667C152.192 2.87895 152.585 2.74809 152.848 2.5518C153.11 2.35551 153.241 2.02835 153.241 1.63577C153.241 1.24318 153.11 0.98146 152.848 0.719737C152.585 0.523445 152.126 0.392583 151.602 0.392583H150.618V0.458014Z" fill="#034F9A"/>
<path d="M159.143 0.0654297V0.458014H156.192V2.94438H159.077V3.33697H156.192V5.88876H159.208V6.28135H155.733V0.0654297H159.143Z" fill="#034F9A"/>
<path d="M165.765 0.523446V1.04689C165.044 0.654307 164.257 0.392585 163.536 0.392585C162.749 0.392585 162.093 0.654307 161.569 1.17775C161.044 1.7012 160.782 2.35551 160.782 3.14068C160.782 3.92585 161.044 4.58015 161.569 5.1036C162.093 5.62704 162.815 5.88877 163.667 5.88877C164.323 5.88877 164.913 5.75791 165.372 5.49618V3.86041H164.061V3.46783H165.897V5.88877C165.175 6.21592 164.388 6.41221 163.667 6.41221C162.684 6.41221 161.897 6.08506 161.241 5.49618C160.585 4.90731 160.257 4.12214 160.257 3.20611C160.257 2.29008 160.585 1.50491 161.241 0.91603C161.897 0.327154 162.684 0 163.667 0C164.323 0 165.044 0.196292 165.765 0.523446Z" fill="#034F9A"/>
<path d="M167.929 0.0654297V6.28135H167.47V0.0654297H167.929Z" fill="#034F9A"/>
<path d="M172.716 0C173.634 0 174.421 0.327154 175.076 0.91603C175.732 1.57034 176.06 2.29008 176.06 3.20611C176.06 4.12214 175.732 4.84188 175.076 5.49618C174.421 6.15049 173.634 6.41221 172.716 6.41221C171.798 6.41221 171.011 6.08506 170.355 5.49618C169.7 4.84188 169.372 4.12214 169.372 3.20611C169.372 2.29008 169.7 1.57034 170.355 0.91603C171.011 0.327154 171.798 0 172.716 0ZM172.781 5.9542C173.568 5.9542 174.224 5.69248 174.749 5.16903C175.273 4.64558 175.535 3.99128 175.535 3.20611C175.535 2.42094 175.273 1.76663 174.749 1.24318C174.224 0.719738 173.568 0.458015 172.781 0.458015C171.995 0.458015 171.339 0.719738 170.814 1.24318C170.29 1.76663 170.027 2.42094 170.027 3.20611C170.027 3.99128 170.29 4.64558 170.814 5.16903C171.273 5.69248 171.995 5.9542 172.781 5.9542Z" fill="#034F9A"/>
<path d="M183.207 0.0654297V6.28135H182.814L178.027 0.850598V6.28135H177.568V0.0654297H177.962L182.683 5.49618V0.0654297H183.207Z" fill="#034F9A"/>
<path d="M187.404 0.0654297L190.289 6.34678H189.765L188.781 4.18757H185.699L184.716 6.34678H184.257L187.142 0.0654297H187.404V0.0654297ZM188.65 3.79498L187.273 0.850598L185.896 3.79498H188.65Z" fill="#034F9A"/>
<path d="M191.863 0.0654297V5.88876H194.945V6.28135H191.338V0.0654297H191.863Z" fill="#034F9A"/>
<path d="M199.404 0.0654297V0.458014H196.453V2.94438H199.338V3.33697H196.453V5.88876H199.469V6.28135H195.994V0.0654297H199.404Z" fill="#034F9A"/>
<path d="M15.2782 60H30.622V29.0513H0V44.5584H15.2782V60Z" fill="#E42314"/>
<path d="M30.4908 13.6094H15.3438L15.2782 44.5581H45.7035V29.051H30.4908V13.6094Z" fill="#014F9B"/>
<path d="M65.6373 20.8726H67.0143L73.0469 34.3513H71.0798L69.3093 30.36H63.6046L61.8997 34.3513H59.9326L65.6373 20.8726ZM68.4569 28.6588L66.293 23.8169L64.2603 28.6588H68.4569Z" fill="#034F9A"/>
<path d="M77.9648 28.7242L76.5222 27.8082C75.6042 27.2193 74.9485 26.6959 74.555 26.1724C74.1616 25.649 73.9649 24.9947 73.9649 24.3404C73.9649 23.2935 74.3583 22.4429 75.0796 21.7886C75.8009 21.1343 76.7845 20.8071 77.9648 20.8071C79.0795 20.8071 80.1286 21.1343 81.0466 21.7232V23.8824C80.0631 22.9663 79.0139 22.5083 77.8992 22.5083C77.2435 22.5083 76.7845 22.6392 76.3255 22.9663C75.9321 23.2281 75.7353 23.6206 75.7353 24.0787C75.7353 24.4712 75.8665 24.8638 76.1943 25.191C76.5222 25.5181 76.9812 25.9107 77.6369 26.3033L79.0795 27.1539C80.7188 28.1354 81.5057 29.3786 81.5057 30.8835C81.5057 31.9304 81.1778 32.8464 80.4565 33.5007C79.7352 34.155 78.8172 34.4822 77.6369 34.4822C76.3255 34.4822 75.0796 34.0896 74.0305 33.239V30.818C75.0796 32.1266 76.2599 32.7809 77.6369 32.7809C78.2271 32.7809 78.7516 32.5847 79.1451 32.2575C79.5385 31.9304 79.7352 31.4723 79.7352 31.0143C79.7352 30.2292 79.1451 29.5094 77.9648 28.7242Z" fill="#034F9A"/>
<path d="M83.8663 20.938H85.7679V32.5847H91.8004V34.3513H83.8663V20.938Z" fill="#034F9A"/>
</g>
<defs>
<clipPath id="clip0_842_7063">
<rect width="199.535" height="60" fill="white"/>
</clipPath>
</defs>
</svg>
